<mxfile host="app.diagrams.net" agent="Mozilla/5.0 (Windows NT 10.0; Win64; x64) AppleWebKit/537.36 (KHTML, like Gecko) Chrome/128.0.0.0 Safari/537.36 Edg/128.0.0.0" version="24.7.8">
  <diagram id="R2lEEEUBdFMjLlhIrx00" name="Page-1">
    <mxGraphModel dx="1451" dy="1361" grid="1" gridSize="10" guides="1" tooltips="1" connect="1" arrows="1" fold="1" page="1" pageScale="1" pageWidth="850" pageHeight="1100" math="0" shadow="0" extFonts="Permanent Marker^https://fonts.googleapis.com/css?family=Permanent+Marker">
      <root>
        <mxCell id="0" />
        <mxCell id="1" parent="0" />
        <mxCell id="kTR_7HhCARbB6sf2-aNd-1" value="Empleado" style="whiteSpace=wrap;html=1;align=center;" vertex="1" parent="1">
          <mxGeometry x="50" y="440" width="100" height="40" as="geometry" />
        </mxCell>
        <mxCell id="kTR_7HhCARbB6sf2-aNd-2" value="Cedula" style="ellipse;whiteSpace=wrap;html=1;align=center;" vertex="1" parent="1">
          <mxGeometry x="-150" y="500" width="100" height="40" as="geometry" />
        </mxCell>
        <mxCell id="kTR_7HhCARbB6sf2-aNd-3" value="Historicos" style="ellipse;shape=doubleEllipse;margin=3;whiteSpace=wrap;html=1;align=center;" vertex="1" parent="1">
          <mxGeometry x="-40" y="550" width="100" height="40" as="geometry" />
        </mxCell>
        <mxCell id="kTR_7HhCARbB6sf2-aNd-4" value="Nombre&lt;div&gt;Completo&lt;/div&gt;" style="ellipse;whiteSpace=wrap;html=1;align=center;" vertex="1" parent="1">
          <mxGeometry x="-150" y="550" width="100" height="40" as="geometry" />
        </mxCell>
        <mxCell id="kTR_7HhCARbB6sf2-aNd-5" value="Genero" style="ellipse;whiteSpace=wrap;html=1;align=center;" vertex="1" parent="1">
          <mxGeometry x="-150" y="450" width="100" height="40" as="geometry" />
        </mxCell>
        <mxCell id="kTR_7HhCARbB6sf2-aNd-6" value="FechaNacimiento" style="ellipse;whiteSpace=wrap;html=1;align=center;" vertex="1" parent="1">
          <mxGeometry x="-80" y="610" width="100" height="40" as="geometry" />
        </mxCell>
        <mxCell id="kTR_7HhCARbB6sf2-aNd-7" value="Cedula" style="ellipse;whiteSpace=wrap;html=1;align=center;" vertex="1" parent="1">
          <mxGeometry x="160" y="550" width="100" height="40" as="geometry" />
        </mxCell>
        <mxCell id="kTR_7HhCARbB6sf2-aNd-8" value="Edad" style="ellipse;whiteSpace=wrap;html=1;align=center;dashed=1;" vertex="1" parent="1">
          <mxGeometry x="-220" y="610" width="100" height="40" as="geometry" />
        </mxCell>
        <mxCell id="kTR_7HhCARbB6sf2-aNd-9" value="Lugar&lt;div&gt;Residencia&lt;/div&gt;" style="ellipse;whiteSpace=wrap;html=1;align=center;" vertex="1" parent="1">
          <mxGeometry x="260" y="540" width="100" height="40" as="geometry" />
        </mxCell>
        <mxCell id="kTR_7HhCARbB6sf2-aNd-10" value="telefono" style="ellipse;whiteSpace=wrap;html=1;align=center;" vertex="1" parent="1">
          <mxGeometry x="260" y="480" width="100" height="40" as="geometry" />
        </mxCell>
        <mxCell id="kTR_7HhCARbB6sf2-aNd-11" value="FechaIngreso" style="ellipse;whiteSpace=wrap;html=1;align=center;" vertex="1" parent="1">
          <mxGeometry x="-150" y="340" width="100" height="40" as="geometry" />
        </mxCell>
        <mxCell id="kTR_7HhCARbB6sf2-aNd-12" value="Salario&lt;div&gt;Actual&lt;/div&gt;" style="ellipse;whiteSpace=wrap;html=1;align=center;" vertex="1" parent="1">
          <mxGeometry x="260" y="350" width="100" height="40" as="geometry" />
        </mxCell>
        <mxCell id="kTR_7HhCARbB6sf2-aNd-13" value="&lt;div&gt;Puesto&lt;/div&gt;&lt;div&gt;Actual&lt;/div&gt;" style="ellipse;whiteSpace=wrap;html=1;align=center;" vertex="1" parent="1">
          <mxGeometry x="260" y="410" width="100" height="40" as="geometry" />
        </mxCell>
        <mxCell id="kTR_7HhCARbB6sf2-aNd-14" value="&lt;div&gt;Departamento&lt;/div&gt;&lt;div&gt;Actual&lt;/div&gt;" style="ellipse;whiteSpace=wrap;html=1;align=center;" vertex="1" parent="1">
          <mxGeometry x="-150" y="390" width="100" height="40" as="geometry" />
        </mxCell>
        <mxCell id="kTR_7HhCARbB6sf2-aNd-16" value="" style="endArrow=none;html=1;rounded=0;entryX=0;entryY=0;entryDx=0;entryDy=0;exitX=1;exitY=0.5;exitDx=0;exitDy=0;" edge="1" parent="1" source="kTR_7HhCARbB6sf2-aNd-11" target="kTR_7HhCARbB6sf2-aNd-1">
          <mxGeometry relative="1" as="geometry">
            <mxPoint x="-30" y="390" as="sourcePoint" />
            <mxPoint x="130" y="390" as="targetPoint" />
          </mxGeometry>
        </mxCell>
        <mxCell id="kTR_7HhCARbB6sf2-aNd-17" value="" style="endArrow=none;html=1;rounded=0;entryX=0;entryY=0;entryDx=0;entryDy=0;" edge="1" parent="1" source="kTR_7HhCARbB6sf2-aNd-14">
          <mxGeometry relative="1" as="geometry">
            <mxPoint x="-50" y="370" as="sourcePoint" />
            <mxPoint x="50" y="450" as="targetPoint" />
          </mxGeometry>
        </mxCell>
        <mxCell id="kTR_7HhCARbB6sf2-aNd-18" value="" style="endArrow=none;html=1;rounded=0;entryX=0;entryY=0;entryDx=0;entryDy=0;exitX=1;exitY=0;exitDx=0;exitDy=0;" edge="1" parent="1" source="kTR_7HhCARbB6sf2-aNd-5">
          <mxGeometry relative="1" as="geometry">
            <mxPoint x="-58" y="430" as="sourcePoint" />
            <mxPoint x="50" y="459" as="targetPoint" />
          </mxGeometry>
        </mxCell>
        <mxCell id="kTR_7HhCARbB6sf2-aNd-19" value="" style="endArrow=none;html=1;rounded=0;entryX=0;entryY=1;entryDx=0;entryDy=0;exitX=1;exitY=0;exitDx=0;exitDy=0;" edge="1" parent="1" source="kTR_7HhCARbB6sf2-aNd-2" target="kTR_7HhCARbB6sf2-aNd-1">
          <mxGeometry relative="1" as="geometry">
            <mxPoint x="-65" y="490" as="sourcePoint" />
            <mxPoint x="50" y="493" as="targetPoint" />
          </mxGeometry>
        </mxCell>
        <mxCell id="kTR_7HhCARbB6sf2-aNd-20" value="" style="endArrow=none;html=1;rounded=0;entryX=0.102;entryY=0.998;entryDx=0;entryDy=0;exitX=1;exitY=0;exitDx=0;exitDy=0;entryPerimeter=0;" edge="1" parent="1" source="kTR_7HhCARbB6sf2-aNd-4" target="kTR_7HhCARbB6sf2-aNd-1">
          <mxGeometry relative="1" as="geometry">
            <mxPoint x="-47.5" y="526" as="sourcePoint" />
            <mxPoint x="67.5" y="500" as="targetPoint" />
          </mxGeometry>
        </mxCell>
        <mxCell id="kTR_7HhCARbB6sf2-aNd-21" value="" style="endArrow=none;html=1;rounded=0;entryX=0.25;entryY=1;entryDx=0;entryDy=0;exitX=0.7;exitY=0.072;exitDx=0;exitDy=0;exitPerimeter=0;" edge="1" parent="1" source="kTR_7HhCARbB6sf2-aNd-3" target="kTR_7HhCARbB6sf2-aNd-1">
          <mxGeometry relative="1" as="geometry">
            <mxPoint x="80" y="566" as="sourcePoint" />
            <mxPoint x="205" y="490" as="targetPoint" />
          </mxGeometry>
        </mxCell>
        <mxCell id="kTR_7HhCARbB6sf2-aNd-22" value="" style="endArrow=none;html=1;rounded=0;entryX=0.869;entryY=0.983;entryDx=0;entryDy=0;exitX=0;exitY=0;exitDx=0;exitDy=0;entryPerimeter=0;" edge="1" parent="1" source="kTR_7HhCARbB6sf2-aNd-7" target="kTR_7HhCARbB6sf2-aNd-1">
          <mxGeometry relative="1" as="geometry">
            <mxPoint x="108" y="570" as="sourcePoint" />
            <mxPoint x="150" y="500" as="targetPoint" />
          </mxGeometry>
        </mxCell>
        <mxCell id="kTR_7HhCARbB6sf2-aNd-23" value="" style="endArrow=none;html=1;rounded=0;entryX=0.869;entryY=0.983;entryDx=0;entryDy=0;entryPerimeter=0;exitX=1;exitY=0.5;exitDx=0;exitDy=0;" edge="1" parent="1" source="kTR_7HhCARbB6sf2-aNd-6">
          <mxGeometry relative="1" as="geometry">
            <mxPoint x="60" y="630" as="sourcePoint" />
            <mxPoint x="81" y="480" as="targetPoint" />
            <Array as="points">
              <mxPoint x="80" y="560" />
            </Array>
          </mxGeometry>
        </mxCell>
        <mxCell id="kTR_7HhCARbB6sf2-aNd-25" value="" style="endArrow=none;html=1;rounded=0;entryX=0.869;entryY=0.983;entryDx=0;entryDy=0;exitX=0;exitY=0;exitDx=0;exitDy=0;entryPerimeter=0;" edge="1" parent="1" source="kTR_7HhCARbB6sf2-aNd-9">
          <mxGeometry relative="1" as="geometry">
            <mxPoint x="188" y="540" as="sourcePoint" />
            <mxPoint x="150" y="463" as="targetPoint" />
          </mxGeometry>
        </mxCell>
        <mxCell id="kTR_7HhCARbB6sf2-aNd-26" value="" style="endArrow=none;html=1;rounded=0;entryX=0.869;entryY=0.983;entryDx=0;entryDy=0;exitX=0;exitY=0.5;exitDx=0;exitDy=0;entryPerimeter=0;" edge="1" parent="1" source="kTR_7HhCARbB6sf2-aNd-10">
          <mxGeometry relative="1" as="geometry">
            <mxPoint x="275" y="540" as="sourcePoint" />
            <mxPoint x="150" y="457" as="targetPoint" />
          </mxGeometry>
        </mxCell>
        <mxCell id="kTR_7HhCARbB6sf2-aNd-27" value="" style="endArrow=none;html=1;rounded=0;entryX=0.869;entryY=0.983;entryDx=0;entryDy=0;exitX=0;exitY=1;exitDx=0;exitDy=0;entryPerimeter=0;" edge="1" parent="1" source="kTR_7HhCARbB6sf2-aNd-13">
          <mxGeometry relative="1" as="geometry">
            <mxPoint x="260" y="493" as="sourcePoint" />
            <mxPoint x="150" y="450" as="targetPoint" />
          </mxGeometry>
        </mxCell>
        <mxCell id="kTR_7HhCARbB6sf2-aNd-28" value="" style="endArrow=none;html=1;rounded=0;entryX=0.869;entryY=0.983;entryDx=0;entryDy=0;exitX=0;exitY=1;exitDx=0;exitDy=0;entryPerimeter=0;" edge="1" parent="1" source="kTR_7HhCARbB6sf2-aNd-12">
          <mxGeometry relative="1" as="geometry">
            <mxPoint x="275" y="434" as="sourcePoint" />
            <mxPoint x="150" y="440" as="targetPoint" />
          </mxGeometry>
        </mxCell>
        <mxCell id="kTR_7HhCARbB6sf2-aNd-29" value="" style="endArrow=none;html=1;rounded=0;exitX=1;exitY=0.5;exitDx=0;exitDy=0;entryX=0;entryY=0.5;entryDx=0;entryDy=0;" edge="1" parent="1" source="kTR_7HhCARbB6sf2-aNd-8" target="kTR_7HhCARbB6sf2-aNd-6">
          <mxGeometry relative="1" as="geometry">
            <mxPoint x="-116.25" y="629.71" as="sourcePoint" />
            <mxPoint x="-83.75" y="629.71" as="targetPoint" />
          </mxGeometry>
        </mxCell>
        <mxCell id="kTR_7HhCARbB6sf2-aNd-30" value="Registro Salarios" style="whiteSpace=wrap;html=1;align=center;" vertex="1" parent="1">
          <mxGeometry x="550" y="280" width="100" height="40" as="geometry" />
        </mxCell>
        <mxCell id="kTR_7HhCARbB6sf2-aNd-31" value="Mes" style="ellipse;whiteSpace=wrap;html=1;align=center;" vertex="1" parent="1">
          <mxGeometry x="590" y="370" width="100" height="40" as="geometry" />
        </mxCell>
        <mxCell id="kTR_7HhCARbB6sf2-aNd-32" value="Empleado" style="ellipse;whiteSpace=wrap;html=1;align=center;" vertex="1" parent="1">
          <mxGeometry x="480" y="370" width="100" height="40" as="geometry" />
        </mxCell>
        <mxCell id="kTR_7HhCARbB6sf2-aNd-33" value="Horas mensuales" style="ellipse;whiteSpace=wrap;html=1;align=center;" vertex="1" parent="1">
          <mxGeometry x="700" y="360" width="100" height="40" as="geometry" />
        </mxCell>
        <mxCell id="kTR_7HhCARbB6sf2-aNd-34" value="" style="endArrow=none;html=1;rounded=0;entryX=0.6;entryY=0;entryDx=0;entryDy=0;exitX=0;exitY=1;exitDx=0;exitDy=0;entryPerimeter=0;" edge="1" parent="1" target="kTR_7HhCARbB6sf2-aNd-32">
          <mxGeometry relative="1" as="geometry">
            <mxPoint x="550" y="320" as="sourcePoint" />
            <mxPoint x="425" y="376" as="targetPoint" />
          </mxGeometry>
        </mxCell>
        <mxCell id="kTR_7HhCARbB6sf2-aNd-35" value="" style="endArrow=none;html=1;rounded=0;entryX=0.5;entryY=0;entryDx=0;entryDy=0;exitX=0;exitY=1;exitDx=0;exitDy=0;" edge="1" parent="1" target="kTR_7HhCARbB6sf2-aNd-31">
          <mxGeometry relative="1" as="geometry">
            <mxPoint x="620" y="320" as="sourcePoint" />
            <mxPoint x="610" y="370" as="targetPoint" />
          </mxGeometry>
        </mxCell>
        <mxCell id="kTR_7HhCARbB6sf2-aNd-36" value="" style="endArrow=none;html=1;rounded=0;entryX=0;entryY=0;entryDx=0;entryDy=0;exitX=0;exitY=1;exitDx=0;exitDy=0;" edge="1" parent="1" target="kTR_7HhCARbB6sf2-aNd-33">
          <mxGeometry relative="1" as="geometry">
            <mxPoint x="650" y="320" as="sourcePoint" />
            <mxPoint x="680" y="380" as="targetPoint" />
          </mxGeometry>
        </mxCell>
        <mxCell id="kTR_7HhCARbB6sf2-aNd-37" value="Reportes" style="whiteSpace=wrap;html=1;align=center;" vertex="1" parent="1">
          <mxGeometry x="570" y="470" width="100" height="40" as="geometry" />
        </mxCell>
        <mxCell id="kTR_7HhCARbB6sf2-aNd-39" value="MontoTotal&lt;div&gt;´PlanillaMes&lt;/div&gt;" style="ellipse;whiteSpace=wrap;html=1;align=center;" vertex="1" parent="1">
          <mxGeometry x="480" y="550" width="100" height="40" as="geometry" />
        </mxCell>
        <mxCell id="kTR_7HhCARbB6sf2-aNd-40" value="Monto&lt;div&gt;PlanillaAño&lt;/div&gt;" style="ellipse;whiteSpace=wrap;html=1;align=center;" vertex="1" parent="1">
          <mxGeometry x="480" y="620" width="100" height="40" as="geometry" />
        </mxCell>
        <mxCell id="kTR_7HhCARbB6sf2-aNd-41" value="MontoPlanillaDep&lt;div&gt;Mes&lt;/div&gt;" style="ellipse;whiteSpace=wrap;html=1;align=center;" vertex="1" parent="1">
          <mxGeometry x="690" y="550" width="110" height="40" as="geometry" />
        </mxCell>
        <mxCell id="kTR_7HhCARbB6sf2-aNd-42" value="MontoPlanillaDep&lt;div&gt;Año&lt;/div&gt;" style="ellipse;whiteSpace=wrap;html=1;align=center;" vertex="1" parent="1">
          <mxGeometry x="680" y="630" width="110" height="40" as="geometry" />
        </mxCell>
        <mxCell id="kTR_7HhCARbB6sf2-aNd-43" value="PorcentajePlanilla&lt;div&gt;Dep&lt;/div&gt;" style="ellipse;whiteSpace=wrap;html=1;align=center;" vertex="1" parent="1">
          <mxGeometry x="560" y="660" width="120" height="40" as="geometry" />
        </mxCell>
        <mxCell id="kTR_7HhCARbB6sf2-aNd-44" value="" style="endArrow=none;html=1;rounded=0;entryX=0.5;entryY=1;entryDx=0;entryDy=0;exitX=0.5;exitY=0;exitDx=0;exitDy=0;" edge="1" parent="1" source="kTR_7HhCARbB6sf2-aNd-43" target="kTR_7HhCARbB6sf2-aNd-37">
          <mxGeometry relative="1" as="geometry">
            <mxPoint x="624.9" y="660" as="sourcePoint" />
            <mxPoint x="615.0999999999998" y="513.5999999999999" as="targetPoint" />
          </mxGeometry>
        </mxCell>
        <mxCell id="kTR_7HhCARbB6sf2-aNd-45" value="" style="endArrow=none;html=1;rounded=0;entryX=0.75;entryY=1;entryDx=0;entryDy=0;exitX=0;exitY=0;exitDx=0;exitDy=0;" edge="1" parent="1" source="kTR_7HhCARbB6sf2-aNd-41" target="kTR_7HhCARbB6sf2-aNd-37">
          <mxGeometry relative="1" as="geometry">
            <mxPoint x="630" y="670" as="sourcePoint" />
            <mxPoint x="630" y="520" as="targetPoint" />
          </mxGeometry>
        </mxCell>
        <mxCell id="kTR_7HhCARbB6sf2-aNd-46" value="" style="endArrow=none;html=1;rounded=0;entryX=0.75;entryY=1;entryDx=0;entryDy=0;exitX=0;exitY=0;exitDx=0;exitDy=0;" edge="1" parent="1" source="kTR_7HhCARbB6sf2-aNd-42">
          <mxGeometry relative="1" as="geometry">
            <mxPoint x="690" y="556" as="sourcePoint" />
            <mxPoint x="629" y="510" as="targetPoint" />
          </mxGeometry>
        </mxCell>
        <mxCell id="kTR_7HhCARbB6sf2-aNd-47" value="" style="endArrow=none;html=1;rounded=0;entryX=0.25;entryY=1;entryDx=0;entryDy=0;exitX=1;exitY=0;exitDx=0;exitDy=0;" edge="1" parent="1" source="kTR_7HhCARbB6sf2-aNd-39" target="kTR_7HhCARbB6sf2-aNd-37">
          <mxGeometry relative="1" as="geometry">
            <mxPoint x="611" y="566" as="sourcePoint" />
            <mxPoint x="550" y="520" as="targetPoint" />
          </mxGeometry>
        </mxCell>
        <mxCell id="kTR_7HhCARbB6sf2-aNd-48" value="" style="endArrow=none;html=1;rounded=0;entryX=0.387;entryY=1.067;entryDx=0;entryDy=0;entryPerimeter=0;exitX=1;exitY=0;exitDx=0;exitDy=0;" edge="1" parent="1" source="kTR_7HhCARbB6sf2-aNd-40" target="kTR_7HhCARbB6sf2-aNd-37">
          <mxGeometry relative="1" as="geometry">
            <mxPoint x="590" y="610" as="sourcePoint" />
            <mxPoint x="583" y="534" as="targetPoint" />
          </mxGeometry>
        </mxCell>
        <mxCell id="kTR_7HhCARbB6sf2-aNd-49" value="Familas" style="whiteSpace=wrap;html=1;align=center;" vertex="1" parent="1">
          <mxGeometry x="-520" y="260" width="100" height="40" as="geometry" />
        </mxCell>
        <mxCell id="kTR_7HhCARbB6sf2-aNd-50" value="NombreFamilia&lt;div&gt;Articulo&lt;/div&gt;" style="ellipse;whiteSpace=wrap;html=1;align=center;" vertex="1" parent="1">
          <mxGeometry x="-650" y="340" width="100" height="40" as="geometry" />
        </mxCell>
        <mxCell id="kTR_7HhCARbB6sf2-aNd-51" value="CodigoFamilia&lt;div&gt;Articulo&lt;/div&gt;" style="ellipse;whiteSpace=wrap;html=1;align=center;" vertex="1" parent="1">
          <mxGeometry x="-650" y="410" width="100" height="40" as="geometry" />
        </mxCell>
        <mxCell id="kTR_7HhCARbB6sf2-aNd-52" value="Activo" style="ellipse;whiteSpace=wrap;html=1;align=center;" vertex="1" parent="1">
          <mxGeometry x="-390" y="340" width="100" height="40" as="geometry" />
        </mxCell>
        <mxCell id="kTR_7HhCARbB6sf2-aNd-53" value="Descripción familia" style="ellipse;whiteSpace=wrap;html=1;align=center;" vertex="1" parent="1">
          <mxGeometry x="-390" y="410" width="100" height="40" as="geometry" />
        </mxCell>
        <mxCell id="kTR_7HhCARbB6sf2-aNd-54" value="" style="endArrow=none;html=1;rounded=0;entryX=0;entryY=1;entryDx=0;entryDy=0;exitX=1;exitY=0;exitDx=0;exitDy=0;" edge="1" parent="1" source="kTR_7HhCARbB6sf2-aNd-50" target="kTR_7HhCARbB6sf2-aNd-49">
          <mxGeometry relative="1" as="geometry">
            <mxPoint x="-540" y="330" as="sourcePoint" />
            <mxPoint x="-440" y="410" as="targetPoint" />
          </mxGeometry>
        </mxCell>
        <mxCell id="kTR_7HhCARbB6sf2-aNd-55" value="" style="endArrow=none;html=1;rounded=0;entryX=1;entryY=1;entryDx=0;entryDy=0;exitX=0.048;exitY=0.288;exitDx=0;exitDy=0;exitPerimeter=0;" edge="1" parent="1" source="kTR_7HhCARbB6sf2-aNd-52" target="kTR_7HhCARbB6sf2-aNd-49">
          <mxGeometry relative="1" as="geometry">
            <mxPoint x="-450" y="360" as="sourcePoint" />
            <mxPoint x="-405" y="314" as="targetPoint" />
            <Array as="points">
              <mxPoint x="-400" y="330" />
            </Array>
          </mxGeometry>
        </mxCell>
        <mxCell id="kTR_7HhCARbB6sf2-aNd-56" value="" style="endArrow=none;html=1;rounded=0;entryX=1;entryY=1;entryDx=0;entryDy=0;exitX=1;exitY=0;exitDx=0;exitDy=0;" edge="1" parent="1" source="kTR_7HhCARbB6sf2-aNd-51">
          <mxGeometry relative="1" as="geometry">
            <mxPoint x="-475" y="352" as="sourcePoint" />
            <mxPoint x="-510" y="300" as="targetPoint" />
          </mxGeometry>
        </mxCell>
        <mxCell id="kTR_7HhCARbB6sf2-aNd-57" value="" style="endArrow=none;html=1;rounded=0;exitX=0;exitY=0;exitDx=0;exitDy=0;" edge="1" parent="1" source="kTR_7HhCARbB6sf2-aNd-53">
          <mxGeometry relative="1" as="geometry">
            <mxPoint x="-497.5" y="440" as="sourcePoint" />
            <mxPoint x="-430" y="300" as="targetPoint" />
          </mxGeometry>
        </mxCell>
        <mxCell id="kTR_7HhCARbB6sf2-aNd-58" value="Articulos" style="whiteSpace=wrap;html=1;align=center;" vertex="1" parent="1">
          <mxGeometry x="-230" y="-20" width="100" height="40" as="geometry" />
        </mxCell>
        <mxCell id="kTR_7HhCARbB6sf2-aNd-59" value="NombreArticulo" style="ellipse;whiteSpace=wrap;html=1;align=center;" vertex="1" parent="1">
          <mxGeometry x="-370" y="230" width="100" height="40" as="geometry" />
        </mxCell>
        <mxCell id="kTR_7HhCARbB6sf2-aNd-60" value="CodigoArticulo" style="ellipse;whiteSpace=wrap;html=1;align=center;" vertex="1" parent="1">
          <mxGeometry x="-90" y="230" width="100" height="40" as="geometry" />
        </mxCell>
        <mxCell id="kTR_7HhCARbB6sf2-aNd-61" value="Activo" style="ellipse;whiteSpace=wrap;html=1;align=center;" vertex="1" parent="1">
          <mxGeometry x="-90" y="160" width="100" height="40" as="geometry" />
        </mxCell>
        <mxCell id="kTR_7HhCARbB6sf2-aNd-62" value="Descripcion" style="ellipse;whiteSpace=wrap;html=1;align=center;" vertex="1" parent="1">
          <mxGeometry x="-90" y="100" width="100" height="40" as="geometry" />
        </mxCell>
        <mxCell id="kTR_7HhCARbB6sf2-aNd-63" value="FamiliaArticulo" style="ellipse;whiteSpace=wrap;html=1;align=center;" vertex="1" parent="1">
          <mxGeometry x="-370" y="170" width="100" height="40" as="geometry" />
        </mxCell>
        <mxCell id="kTR_7HhCARbB6sf2-aNd-64" value="Peso" style="ellipse;whiteSpace=wrap;html=1;align=center;" vertex="1" parent="1">
          <mxGeometry x="-90" y="40" width="100" height="40" as="geometry" />
        </mxCell>
        <mxCell id="kTR_7HhCARbB6sf2-aNd-65" value="Costo" style="ellipse;whiteSpace=wrap;html=1;align=center;" vertex="1" parent="1">
          <mxGeometry x="-370" y="40" width="100" height="40" as="geometry" />
        </mxCell>
        <mxCell id="kTR_7HhCARbB6sf2-aNd-66" value="PrecioEstandar" style="ellipse;whiteSpace=wrap;html=1;align=center;" vertex="1" parent="1">
          <mxGeometry x="-370" y="100" width="100" height="40" as="geometry" />
        </mxCell>
        <mxCell id="kTR_7HhCARbB6sf2-aNd-69" value="" style="endArrow=none;html=1;rounded=0;entryX=1;entryY=1;entryDx=0;entryDy=0;" edge="1" parent="1" source="kTR_7HhCARbB6sf2-aNd-65">
          <mxGeometry relative="1" as="geometry">
            <mxPoint x="-285" y="136" as="sourcePoint" />
            <mxPoint x="-230" y="20" as="targetPoint" />
          </mxGeometry>
        </mxCell>
        <mxCell id="kTR_7HhCARbB6sf2-aNd-70" value="" style="endArrow=none;html=1;rounded=0;entryX=0;entryY=0;entryDx=0;entryDy=0;exitX=1;exitY=1;exitDx=0;exitDy=0;" edge="1" parent="1" source="kTR_7HhCARbB6sf2-aNd-58" target="kTR_7HhCARbB6sf2-aNd-64">
          <mxGeometry relative="1" as="geometry">
            <mxPoint x="-137" y="55" as="sourcePoint" />
            <mxPoint x="-80" y="30" as="targetPoint" />
          </mxGeometry>
        </mxCell>
        <mxCell id="kTR_7HhCARbB6sf2-aNd-71" value="" style="endArrow=none;html=1;rounded=0;entryX=1;entryY=1;entryDx=0;entryDy=0;" edge="1" parent="1" source="kTR_7HhCARbB6sf2-aNd-66">
          <mxGeometry relative="1" as="geometry">
            <mxPoint x="-270" y="45" as="sourcePoint" />
            <mxPoint x="-213" y="20" as="targetPoint" />
          </mxGeometry>
        </mxCell>
        <mxCell id="kTR_7HhCARbB6sf2-aNd-72" value="" style="endArrow=none;html=1;rounded=0;entryX=0;entryY=0;entryDx=0;entryDy=0;exitX=1;exitY=1;exitDx=0;exitDy=0;" edge="1" parent="1" target="kTR_7HhCARbB6sf2-aNd-62">
          <mxGeometry relative="1" as="geometry">
            <mxPoint x="-145" y="20" as="sourcePoint" />
            <mxPoint x="-90" y="46" as="targetPoint" />
          </mxGeometry>
        </mxCell>
        <mxCell id="kTR_7HhCARbB6sf2-aNd-73" value="" style="endArrow=none;html=1;rounded=0;entryX=0.25;entryY=1;entryDx=0;entryDy=0;exitX=1;exitY=0;exitDx=0;exitDy=0;" edge="1" parent="1" source="kTR_7HhCARbB6sf2-aNd-63" target="kTR_7HhCARbB6sf2-aNd-58">
          <mxGeometry relative="1" as="geometry">
            <mxPoint x="-290" y="112" as="sourcePoint" />
            <mxPoint x="-203" y="30" as="targetPoint" />
          </mxGeometry>
        </mxCell>
        <mxCell id="kTR_7HhCARbB6sf2-aNd-74" value="" style="endArrow=none;html=1;rounded=0;entryX=0.25;entryY=1;entryDx=0;entryDy=0;exitX=0;exitY=0;exitDx=0;exitDy=0;" edge="1" parent="1" source="kTR_7HhCARbB6sf2-aNd-61">
          <mxGeometry relative="1" as="geometry">
            <mxPoint x="-230" y="176" as="sourcePoint" />
            <mxPoint x="-150" y="20" as="targetPoint" />
          </mxGeometry>
        </mxCell>
        <mxCell id="kTR_7HhCARbB6sf2-aNd-75" value="" style="endArrow=none;html=1;rounded=0;entryX=0.25;entryY=1;entryDx=0;entryDy=0;exitX=1;exitY=0;exitDx=0;exitDy=0;" edge="1" parent="1" source="kTR_7HhCARbB6sf2-aNd-59">
          <mxGeometry relative="1" as="geometry">
            <mxPoint x="-270" y="176" as="sourcePoint" />
            <mxPoint x="-190" y="20" as="targetPoint" />
            <Array as="points" />
          </mxGeometry>
        </mxCell>
        <mxCell id="kTR_7HhCARbB6sf2-aNd-76" value="" style="endArrow=none;html=1;rounded=0;entryX=0.25;entryY=1;entryDx=0;entryDy=0;exitX=0;exitY=0;exitDx=0;exitDy=0;" edge="1" parent="1" source="kTR_7HhCARbB6sf2-aNd-60">
          <mxGeometry relative="1" as="geometry">
            <mxPoint x="-260" y="236" as="sourcePoint" />
            <mxPoint x="-165" y="20" as="targetPoint" />
            <Array as="points" />
          </mxGeometry>
        </mxCell>
      </root>
    </mxGraphModel>
  </diagram>
</mxfile>
